<?xml version="1.0" encoding="iso-8859-1"?>
<!-- Uploaded to: SVG Repo, www.svgrepo.com, Generator: SVG Repo Mixer Tools -->
<svg version="1.1" id="Layer_1" xmlns="http://www.w3.org/2000/svg" xmlns:xlink="http://www.w3.org/1999/xlink" 
	 viewBox="0 0 512 512" xml:space="preserve">
<polygon style="fill:#D6E5F6;" points="209.455,162.908 209.455,23.273 116.364,23.273 116.364,162.908 85.333,240.483 
	85.333,488.727 240.485,488.727 240.485,240.483 "/>
<polygon style="fill:#BCD6F2;" points="240.485,240.485 209.455,162.909 209.455,23.273 162.909,23.273 162.909,488.727 
	240.485,488.727 "/>
<path style="fill:#4B7244;" d="M240.485,512H85.333c-12.853,0-23.273-10.42-23.273-23.273V240.483c0-2.96,0.565-5.894,1.665-8.642
	l29.366-73.416V23.273C93.091,10.42,103.511,0,116.364,0h93.091c12.853,0,23.273,10.42,23.273,23.273v135.152l29.366,73.415
	c1.1,2.748,1.665,5.682,1.665,8.642v248.245C263.758,501.58,253.338,512,240.485,512z M108.606,465.455h108.606V244.967
	l-29.366-73.415c-1.1-2.748-1.665-5.682-1.665-8.643V46.545h-46.545v116.362c0,2.962-0.565,5.896-1.665,8.643l-29.366,73.416
	V465.455z"/>
<polygon style="fill:#E07188;" points="209.455,162.909 116.364,162.909 85.333,240.485 85.333,488.727 240.485,488.727 
	240.485,240.485 "/>
<polygon style="fill:#DC4161;" points="240.485,240.485 209.455,162.909 162.909,162.909 162.909,488.727 240.485,488.727 "/>
<path style="fill:#A8DA64;" d="M240.485,512H85.333c-12.853,0-23.273-10.42-23.273-23.273V240.483c0-2.96,0.565-5.894,1.665-8.642
	l29.366-73.416V23.273C93.091,10.42,103.511,0,116.364,0h93.091c12.853,0,23.273,10.42,23.273,23.273v135.152l29.366,73.415
	c1.1,2.748,1.665,5.682,1.665,8.642v248.245C263.758,501.58,253.338,512,240.485,512z M108.606,465.455h108.606V244.967
	l-29.366-73.415c-1.1-2.748-1.665-5.682-1.665-8.643V46.545h-46.545v116.362c0,2.962-0.565,5.896-1.665,8.643l-29.366,73.416
	V465.455z"/>
<path style="fill:#78B86D;" d="M262.093,231.841l-29.366-73.415V23.273C232.727,10.42,222.307,0,209.455,0h-46.545v46.545h23.273
	v116.364c0,2.96,0.565,5.894,1.665,8.642l29.366,73.416v220.487h-54.303V512h77.576c12.853,0,23.273-10.422,23.273-23.273V240.485
	C263.758,237.525,263.193,234.589,262.093,231.841z"/>
<path style="fill:#F4D853;" d="M217.212,46.545H108.606c-12.853,0-23.273-10.42-23.273-23.273S95.753,0,108.606,0h108.606
	c12.853,0,23.273,10.42,23.273,23.273S230.065,46.545,217.212,46.545z"/>
<path style="fill:#D6E5F6;" d="M333.576,162.908v139.636c0,25.704,20.84,46.545,46.545,46.545c25.706,0,46.545-20.841,46.545-46.545
	V162.908L333.576,162.908L333.576,162.908z"/>
<path style="fill:#BCD6F2;" d="M380.121,162.909v186.182c25.706,0,46.545-20.843,46.545-46.545V162.909H380.121z"/>
<path style="fill:#8CB7E8;" d="M380.121,372.362c-38.499,0-69.818-31.319-69.818-69.818V162.908
	c0-12.853,10.42-23.273,23.273-23.273h93.091c12.853,0,23.273,10.42,23.273,23.273v139.636
	C449.939,341.043,418.619,372.362,380.121,372.362z M356.848,186.18v116.364c0,12.833,10.439,23.273,23.273,23.273
	c12.833,0,23.273-10.44,23.273-23.273V186.18L356.848,186.18L356.848,186.18z"/>
<path style="fill:#E07188;" d="M426.667,232.727h-93.091c-12.853,0-23.273,10.418-23.273,23.273v46.545
	c0,38.498,31.319,69.818,69.818,69.818c38.498,0,69.818-31.322,69.818-69.818V256C449.939,243.146,439.519,232.727,426.667,232.727z
	"/>
<path style="fill:#DC4161;" d="M426.667,232.727h-46.545v139.636c38.498,0,69.818-31.322,69.818-69.818V256
	C449.939,243.146,439.519,232.727,426.667,232.727z"/>
<path style="fill:#8CB7E8;" d="M449.939,302.545V162.909c0-12.854-10.42-23.273-23.273-23.273h-93.091
	c-12.853,0-23.273,10.418-23.273,23.273v139.636c0,30.34,19.458,56.207,46.545,65.815v97.094h-23.273
	c-12.853,0-23.273,10.418-23.273,23.273c0,12.851,10.42,23.273,23.273,23.273h93.091c12.853,0,23.273-10.422,23.273-23.273
	c0-12.854-10.42-23.273-23.273-23.273h-23.273v-97.094C430.482,358.752,449.939,332.885,449.939,302.545z M356.848,186.182h46.545
	v116.364c0,12.831-10.44,23.273-23.273,23.273c-12.834,0-23.273-10.442-23.273-23.273V186.182z"/>
<rect x="62.061" y="263.758" style="fill:#D6E5F6;" width="201.697" height="155.152"/>
<path style="fill:#E9A440;" d="M240.485,23.273C240.485,10.42,230.065,0,217.212,0h-54.303v46.545h54.303
	C230.065,46.545,240.485,36.125,240.485,23.273z"/>
<rect x="162.909" y="263.758" style="fill:#BCD6F2;" width="100.848" height="155.152"/>
<path style="fill:#6398DE;" d="M449.939,302.545V162.909c0-12.854-10.42-23.273-23.273-23.273h-46.545v46.545h23.273v116.364
	c0,12.831-10.44,23.273-23.273,23.273V512h46.545c12.853,0,23.273-10.422,23.273-23.273c0-12.854-10.42-23.273-23.273-23.273
	h-23.273v-97.094C430.482,358.752,449.939,332.885,449.939,302.545z"/>
</svg>